<svg xmlns="http://www.w3.org/2000/svg" width="580" height="380" viewBox="0 0 580 380" font-family="Helvetica, Arial, sans-serif">
<title>Breadth-first search time against fold depth, by tier</title>
<desc>Search time grows exponentially with fold depth. Cost model: t(d) = b^d / r, assuming constant throughput -- a LOWER BOUND, because per-node cost also grows with depth. Source: workspace/depth_wall/depth_wall.csv. easy: b=2.72, 44.5 expansions per second, reference depth 6.8; mid: b=3.15, 22.3 expansions per second, reference depth 12.0; hard: b=7.05, 2.5 expansions per second, reference depth 19.0.</desc>
<rect width="580" height="380" fill="#ffffff"/>
<line x1="70" y1="312.9" x2="566.0" y2="312.9" stroke="#d4d4d4" stroke-width="0.6" stroke-dasharray="3 3"/>
<text x="75" y="309.9" font-size="9" fill="#9a9a9a">1 second</text>
<line x1="70" y1="275.5" x2="566.0" y2="275.5" stroke="#d4d4d4" stroke-width="0.6" stroke-dasharray="3 3"/>
<text x="75" y="272.5" font-size="9" fill="#9a9a9a">1 minute</text>
<line x1="70" y1="238.0" x2="566.0" y2="238.0" stroke="#d4d4d4" stroke-width="0.6" stroke-dasharray="3 3"/>
<text x="75" y="235.0" font-size="9" fill="#9a9a9a">1 hour</text>
<line x1="70" y1="208.9" x2="566.0" y2="208.9" stroke="#d4d4d4" stroke-width="0.6" stroke-dasharray="3 3"/>
<text x="75" y="205.9" font-size="9" fill="#9a9a9a">1 day</text>
<line x1="70" y1="155.0" x2="566.0" y2="155.0" stroke="#d4d4d4" stroke-width="0.6" stroke-dasharray="3 3"/>
<text x="75" y="152.0" font-size="9" fill="#9a9a9a">1 year</text>
<line x1="70" y1="112.8" x2="566.0" y2="112.8" stroke="#d4d4d4" stroke-width="0.6" stroke-dasharray="3 3"/>
<text x="75" y="109.8" font-size="9" fill="#9a9a9a">1 century</text>
<line x1="70" y1="28.6" x2="566.0" y2="28.6" stroke="#d4d4d4" stroke-width="0.6" stroke-dasharray="3 3"/>
<text x="75" y="25.6" font-size="9" fill="#9a9a9a">age of the universe</text>
<line x1="70" y1="18" x2="70" y2="334" stroke="#444" stroke-width="0.8"/>
<line x1="70" y1="334" x2="566" y2="334" stroke="#444" stroke-width="0.8"/>
<line x1="66" y1="334.0" x2="70" y2="334.0" stroke="#444" stroke-width="0.8"/>
<text x="63" y="337.5" font-size="9" fill="#444" text-anchor="end">10⁻¹</text>
<line x1="66" y1="312.9" x2="70" y2="312.9" stroke="#444" stroke-width="0.8"/>
<text x="63" y="316.4" font-size="9" fill="#444" text-anchor="end">10⁰</text>
<line x1="66" y1="291.9" x2="70" y2="291.9" stroke="#444" stroke-width="0.8"/>
<text x="63" y="295.4" font-size="9" fill="#444" text-anchor="end">10¹</text>
<line x1="66" y1="249.7" x2="70" y2="249.7" stroke="#444" stroke-width="0.8"/>
<text x="63" y="253.2" font-size="9" fill="#444" text-anchor="end">10³</text>
<line x1="66" y1="207.6" x2="70" y2="207.6" stroke="#444" stroke-width="0.8"/>
<text x="63" y="211.1" font-size="9" fill="#444" text-anchor="end">10⁵</text>
<line x1="66" y1="165.5" x2="70" y2="165.5" stroke="#444" stroke-width="0.8"/>
<text x="63" y="169.0" font-size="9" fill="#444" text-anchor="end">10⁷</text>
<line x1="66" y1="123.3" x2="70" y2="123.3" stroke="#444" stroke-width="0.8"/>
<text x="63" y="126.8" font-size="9" fill="#444" text-anchor="end">10⁹</text>
<line x1="66" y1="81.2" x2="70" y2="81.2" stroke="#444" stroke-width="0.8"/>
<text x="63" y="84.7" font-size="9" fill="#444" text-anchor="end">10¹¹</text>
<line x1="66" y1="39.1" x2="70" y2="39.1" stroke="#444" stroke-width="0.8"/>
<text x="63" y="42.6" font-size="9" fill="#444" text-anchor="end">10¹³</text>
<line x1="96.1" y1="334" x2="96.1" y2="338" stroke="#444" stroke-width="0.8"/>
<text x="96.1" y="350" font-size="9" fill="#444" text-anchor="middle">2</text>
<line x1="148.3" y1="334" x2="148.3" y2="338" stroke="#444" stroke-width="0.8"/>
<text x="148.3" y="350" font-size="9" fill="#444" text-anchor="middle">4</text>
<line x1="200.5" y1="334" x2="200.5" y2="338" stroke="#444" stroke-width="0.8"/>
<text x="200.5" y="350" font-size="9" fill="#444" text-anchor="middle">6</text>
<line x1="252.7" y1="334" x2="252.7" y2="338" stroke="#444" stroke-width="0.8"/>
<text x="252.7" y="350" font-size="9" fill="#444" text-anchor="middle">8</text>
<line x1="304.9" y1="334" x2="304.9" y2="338" stroke="#444" stroke-width="0.8"/>
<text x="304.9" y="350" font-size="9" fill="#444" text-anchor="middle">10</text>
<line x1="357.2" y1="334" x2="357.2" y2="338" stroke="#444" stroke-width="0.8"/>
<text x="357.2" y="350" font-size="9" fill="#444" text-anchor="middle">12</text>
<line x1="409.4" y1="334" x2="409.4" y2="338" stroke="#444" stroke-width="0.8"/>
<text x="409.4" y="350" font-size="9" fill="#444" text-anchor="middle">14</text>
<line x1="461.6" y1="334" x2="461.6" y2="338" stroke="#444" stroke-width="0.8"/>
<text x="461.6" y="350" font-size="9" fill="#444" text-anchor="middle">16</text>
<line x1="513.8" y1="334" x2="513.8" y2="338" stroke="#444" stroke-width="0.8"/>
<text x="513.8" y="350" font-size="9" fill="#444" text-anchor="middle">18</text>
<line x1="566.0" y1="334" x2="566.0" y2="338" stroke="#444" stroke-width="0.8"/>
<text x="566.0" y="350" font-size="9" fill="#444" text-anchor="middle">20</text>
<path d="M70.0,334.0 L76.5,334.0 L83.1,333.9 L89.6,331.6 L96.1,329.3 L102.6,327.1 L109.2,324.8 L115.7,322.5 L122.2,320.2 L128.7,317.9 L135.3,315.6 L141.8,313.3 L148.3,311.0 L154.8,308.7 L161.4,306.5 L167.9,304.2 L174.4,301.9 L180.9,299.6 L187.5,297.3 L194.0,295.0 L200.5,292.7 L207.1,290.4 L213.6,288.1 L220.1,285.8 L226.6,283.6 L233.2,281.3 L239.7,279.0 L246.2,276.7 L252.7,274.4 L259.3,272.1 L265.8,269.8 L272.3,267.5 L278.8,265.2 L285.4,263.0 L291.9,260.7 L298.4,258.4 L304.9,256.1 L311.5,253.8 L318.0,251.5 L324.5,249.2 L331.1,246.9 L337.6,244.6 L344.1,242.3 L350.6,240.1 L357.2,237.8 L363.7,235.5 L370.2,233.2 L376.7,230.9 L383.3,228.6 L389.8,226.3 L396.3,224.0 L402.8,221.7 L409.4,219.5 L415.9,217.2 L422.4,214.9 L428.9,212.6 L435.5,210.3 L442.0,208.0 L448.5,205.7 L455.1,203.4 L461.6,201.1 L468.1,198.9 L474.6,196.6 L481.2,194.3 L487.7,192.0 L494.2,189.7 L500.7,187.4 L507.3,185.1 L513.8,182.8 L520.3,180.5 L526.8,178.2 L533.4,176.0 L539.9,173.7 L546.4,171.4 L552.9,169.1 L559.5,166.8 L566.0,164.5" fill="none" stroke="#1d7a56" stroke-width="1.9" stroke-linejoin="round"/>
<line x1="221.4" y1="285.4" x2="221.4" y2="334.0" stroke="#1d7a56" stroke-width="0.7" stroke-dasharray="2 3" opacity="0.7"/>
<rect x="217.9" y="281.9" width="7" height="7" fill="#1d7a56" transform="rotate(45 221.4 285.4)"/>
<text x="229.4" y="286.4" font-size="9.5" fill="#1d7a56" text-anchor="start">20 s</text>
<text x="562.0" y="158.5" font-size="10.5" fill="#1d7a56" text-anchor="end">easy  b=2.72</text>
<path d="M70.0,330.8 L76.5,328.2 L83.1,325.6 L89.6,323.0 L96.1,320.4 L102.6,317.7 L109.2,315.1 L115.7,312.5 L122.2,309.9 L128.7,307.2 L135.3,304.6 L141.8,302.0 L148.3,299.4 L154.8,296.8 L161.4,294.1 L167.9,291.5 L174.4,288.9 L180.9,286.3 L187.5,283.6 L194.0,281.0 L200.5,278.4 L207.1,275.8 L213.6,273.2 L220.1,270.5 L226.6,267.9 L233.2,265.3 L239.7,262.7 L246.2,260.0 L252.7,257.4 L259.3,254.8 L265.8,252.2 L272.3,249.6 L278.8,246.9 L285.4,244.3 L291.9,241.7 L298.4,239.1 L304.9,236.4 L311.5,233.8 L318.0,231.2 L324.5,228.6 L331.1,226.0 L337.6,223.3 L344.1,220.7 L350.6,218.1 L357.2,215.5 L363.7,212.8 L370.2,210.2 L376.7,207.6 L383.3,205.0 L389.8,202.4 L396.3,199.7 L402.8,197.1 L409.4,194.5 L415.9,191.9 L422.4,189.2 L428.9,186.6 L435.5,184.0 L442.0,181.4 L448.5,178.8 L455.1,176.1 L461.6,173.5 L468.1,170.9 L474.6,168.3 L481.2,165.6 L487.7,163.0 L494.2,160.4 L500.7,157.8 L507.3,155.2 L513.8,152.5 L520.3,149.9 L526.8,147.3 L533.4,144.7 L539.9,142.0 L546.4,139.4 L552.9,136.8 L559.5,134.2 L566.0,131.5" fill="none" stroke="#b06a0f" stroke-width="1.9" stroke-linejoin="round"/>
<line x1="357.2" y1="215.5" x2="357.2" y2="334.0" stroke="#b06a0f" stroke-width="0.7" stroke-dasharray="2 3" opacity="0.7"/>
<rect x="353.7" y="212.0" width="7" height="7" fill="#b06a0f" transform="rotate(45 357.2 215.5)"/>
<text x="365.2" y="216.5" font-size="9.5" fill="#b06a0f" text-anchor="start">12 h</text>
<text x="562.0" y="125.5" font-size="10.5" fill="#b06a0f" text-anchor="end">mid  b=3.15</text>
<path d="M70.0,303.4 L76.5,298.9 L83.1,294.4 L89.6,290.0 L96.1,285.5 L102.6,281.0 L109.2,276.6 L115.7,272.1 L122.2,267.6 L128.7,263.2 L135.3,258.7 L141.8,254.2 L148.3,249.8 L154.8,245.3 L161.4,240.8 L167.9,236.4 L174.4,231.9 L180.9,227.4 L187.5,223.0 L194.0,218.5 L200.5,214.0 L207.1,209.6 L213.6,205.1 L220.1,200.6 L226.6,196.2 L233.2,191.7 L239.7,187.2 L246.2,182.8 L252.7,178.3 L259.3,173.8 L265.8,169.4 L272.3,164.9 L278.8,160.4 L285.4,156.0 L291.9,151.5 L298.4,147.0 L304.9,142.6 L311.5,138.1 L318.0,133.6 L324.5,129.2 L331.1,124.7 L337.6,120.2 L344.1,115.8 L350.6,111.3 L357.2,106.8 L363.7,102.4 L370.2,97.9 L376.7,93.4 L383.3,89.0 L389.8,84.5 L396.3,80.0 L402.8,75.6 L409.4,71.1 L415.9,66.6 L422.4,62.2 L428.9,57.7 L435.5,53.2 L442.0,48.8 L448.5,44.3 L455.1,39.8 L461.6,35.3 L468.1,30.9 L474.6,26.4 L481.2,21.9 L487.7,18.0 L494.2,18.0 L500.7,18.0" fill="none" stroke="#a3322f" stroke-width="1.9" stroke-linejoin="round"/>
<line x1="539.9" y1="18.0" x2="539.9" y2="334.0" stroke="#a3322f" stroke-width="0.7" stroke-dasharray="2 3" opacity="0.7"/>
<rect x="536.4" y="14.5" width="7" height="7" fill="#a3322f" transform="rotate(45 539.9 18.0)"/>
<text x="531.9" y="32.0" font-size="9.5" fill="#a3322f" text-anchor="end">1.7e+8 y</text>
<text x="496.7" y="12.0" font-size="10.5" fill="#a3322f" text-anchor="end">hard  b=7.05</text>
<circle cx="148.3" cy="332.3" r="2.6" fill="#ffffff" stroke="#1d7a56" stroke-width="1.3"/>
<circle cx="174.4" cy="320.8" r="2.6" fill="#ffffff" stroke="#1d7a56" stroke-width="1.3"/>
<circle cx="174.4" cy="328.5" r="2.6" fill="#ffffff" stroke="#1d7a56" stroke-width="1.3"/>
<circle cx="174.4" cy="332.1" r="2.6" fill="#ffffff" stroke="#1d7a56" stroke-width="1.3"/>
<circle cx="226.6" cy="292.7" r="2.6" fill="#ffffff" stroke="#1d7a56" stroke-width="1.3"/>
<circle cx="226.6" cy="279.5" r="2.6" fill="#ffffff" stroke="#1d7a56" stroke-width="1.3"/>
<text x="318.0" y="372" font-size="11" fill="#444" text-anchor="middle">fold depth (number of folds in the solution)</text>
<text x="14" y="176.0" font-size="11" fill="#444" text-anchor="middle" transform="rotate(-90 14 176.0)">search time (seconds, log scale)</text>
<g font-size="9" fill="#777"><circle cx="88" cy="62" r="2.6" fill="#ffffff" stroke="#777" stroke-width="1.3"/><text x="96" y="65">observed solve</text>
<rect x="85" y="73" width="6" height="6" fill="#777" transform="rotate(45 88 76)"/><text x="96" y="79">tier reference depth</text></g>
</svg>
